<?xml version="1.0" encoding="utf-8"?>
<!-- Generator: Adobe Illustrator 26.0.2, SVG Export Plug-In . SVG Version: 6.00 Build 0)  -->
<svg version="1.1" id="Layer_2" xmlns="http://www.w3.org/2000/svg" xmlns:xlink="http://www.w3.org/1999/xlink" x="0px" y="0px"
	 viewBox="0 0 126 33" style="enable-background:new 0 0 126 33;" xml:space="preserve">
<style type="text/css">
	.st0{fill:#FFFFFF;}
</style>
<g id="_여기에_작업하세요.">
	<path class="st0" d="M38.6,0.4L37.8,0l-0.4,0.8L26.9,22.1l21.2,10.5L49,33l0.4-0.8l10.5-21.2L38.6,0.4z M58.1,11.5l-4.6,9.3
		L43.9,16L39.2,2.2C39.2,2.2,58.1,11.5,58.1,11.5z M37.9,2.6l4.3,12.6L33.8,11L37.9,2.6L37.9,2.6z M28.6,21.5l4.6-9.3l9.6,4.8
		l4.7,13.9L28.6,21.5L28.6,21.5z M44.5,17.8l8.5,4.2l-4.2,8.5L44.5,17.8L44.5,17.8z"/>
	<path class="st0" d="M37.4,0.4L36.6,0l-0.4,0.8L25.7,22.1l21.2,10.5l0.8,0.4l0.4-0.8l10.5-21.2L37.4,0.4z M56.9,11.5l-4.6,9.3
		L42.7,16L38,2.2L56.9,11.5L56.9,11.5z M36.8,2.6L41,15.2L32.6,11L36.8,2.6L36.8,2.6z M27.4,21.5l4.6-9.3l9.6,4.8l4.7,13.9
		L27.4,21.5L27.4,21.5z M43.3,17.8l8.5,4.2l-4.2,8.5L43.3,17.8L43.3,17.8z"/>
	<path class="st0" d="M0,15h2.5v15.2H0V15z M9.5,15v1.9H3.4V15C3.4,15,9.5,15,9.5,15z M8.9,23.3H3.4v-1.7h5.5V23.3z M3.4,28.3h6.2
		v1.9H3.4C3.4,30.2,3.4,28.3,3.4,28.3z"/>
	<path class="st0" d="M12.9,30.2V15h2.5v15.2H12.9z M21.4,15h2.5v15.2h-2.5l-5.1-9v-4.8l5.1,9C21.4,25.5,21.4,15,21.4,15z"/>
	<path class="st0" d="M60.3,15h2.5l4.1,9.4v3.8h-0.7l-3.4-8.5v10.5h-2.5C60.3,30.2,60.3,15,60.3,15z M71.9,15h2.5v15.2h-2.5V19.7
		l-3.4,8.5h-0.7v-3.8L71.9,15L71.9,15z"/>
	<path class="st0" d="M78.3,15h2.5v15.2h-2.5V15z M87.8,15v1.9h-6.2V15C81.7,15,87.8,15,87.8,15z M87.2,23.3h-5.5v-1.7h5.5V23.3z
		 M81.7,28.3h6.2v1.9h-6.2V28.3z"/>
	<path class="st0" d="M91.3,15h2.5v15.2h-2.5V15z M95.9,15c1.3,0,2.4,0.2,3.4,0.6c1,0.4,1.8,0.9,2.4,1.6c0.6,0.7,1.1,1.4,1.4,2.3
		c0.3,0.9,0.5,1.8,0.5,2.7c0,1.2-0.1,2.3-0.4,3.2c-0.3,0.9-0.6,1.6-1,2.2c-0.4,0.6-0.9,1.1-1.4,1.4c-0.5,0.3-1,0.6-1.5,0.8
		c-0.5,0.2-0.9,0.3-1.3,0.3s-0.7,0.1-0.9,0.1h-2.4v-1.8h1.6c1.7,0,2.9-0.5,3.6-1.6c0.7-1.1,1.1-2.6,1.1-4.7c0-0.6-0.1-1.3-0.2-1.9
		c-0.2-0.6-0.4-1.2-0.9-1.7c-0.4-0.5-1-0.9-1.8-1.2c-0.7-0.3-1.7-0.5-2.9-0.5h-0.6V15L95.9,15L95.9,15z"/>
	<path class="st0" d="M109.7,30.2h-2.5V15h2.5V30.2z"/>
	<path class="st0" d="M126,30.2h-2.6l-3.9-11.4l-4,11.4h-2.6l5.3-15.2h2.5C120.7,15,126,30.2,126,30.2z M120.8,25.4l0.6,1.7h-3.9
		l0.6-1.7H120.8z"/>
</g>
</svg>
